HIERARCHY
ROOT Hips
{
	OFFSET 0.000000 0.000000 0.000000
	CHANNELS 6 Xposition Yposition Zposition Zrotation Yrotation Xrotation 
	JOINT LHipJoint
	{
		OFFSET 0.000000 0.000000 0.000000
		CHANNELS 3 Zrotation Yrotation Xrotation
		JOINT LeftUpLeg
		{
			OFFSET 1.363060 -1.794630 0.839290
			CHANNELS 3 Zrotation Yrotation Xrotation
			JOINT LeftLeg
			{
				OFFSET 2.448110 -6.726130 0.000000
				CHANNELS 3 Zrotation Yrotation Xrotation
				JOINT LeftFoot
				{
					OFFSET 2.562200 -7.039590 0.000000
					CHANNELS 3 Zrotation Yrotation Xrotation
					JOINT LeftToeBase
					{
						OFFSET 0.157640 -0.433110 2.322550
						CHANNELS 3 Zrotation Yrotation Xrotation
						End Site
						{
							OFFSET 0.000000 0.000000 0.000000
						}
					}
				}
			}
		}
	}
	JOINT RHipJoint
	{
		OFFSET 0.000000 0.000000 0.000000
		CHANNELS 3 Zrotation Yrotation Xrotation
		JOINT RightUpLeg
		{
			OFFSET -1.305520 -1.794630 0.839290
			CHANNELS 3 Zrotation Yrotation Xrotation
			JOINT RightLeg
			{
				OFFSET -2.542530 -6.985550 0.000000
				CHANNELS 3 Zrotation Yrotation Xrotation
				JOINT RightFoot
				{
					OFFSET -2.568260 -7.056230 0.000000
					CHANNELS 3 Zrotation Yrotation Xrotation
					JOINT RightToeBase
					{
						OFFSET -0.164730 -0.452590 2.363150
						CHANNELS 3 Zrotation Yrotation Xrotation
						End Site
						{
							OFFSET 0.000000 0.000000 0.000000
						}
					}
				}
			}
		}
	}
}
MOTION
Frames: 19
Frame Time: 0.008333
3.866370 16.280710 -2.110701 101.722644 -71.513207 -108.125542 -3.238015 -4.839949 1.090802 -2.851363 -9.623775 -126.202999 -1.893992 4.067850 44.659194 1.796144 10.057856 9.500814 4.122300 -0.000000 -49.297500 14.196387 4.179633 -7.314127 -8.699772 -0.078843 -6.226693 -0.148813 -4.495872 47.583577 -2.555845 -10.595433 -21.534980 2.335600 0.000000 -60.761400
3.892573 16.276004 -2.124814 101.435253 -71.580032 -107.976903 -3.271838 -4.945178 1.643569 -1.907710 -8.639855 -120.972930 -2.869819 2.634860 32.315788 1.406123 9.070173 12.485899 4.347400 0.000000 -51.503400 14.331319 4.328822 -7.632780 -8.742648 -0.065087 -5.664614 -0.139568 -4.573746 47.424724 -2.580125 -10.723440 -21.484138 2.339500 0.000000 -60.415800
3.918233 16.277134 -2.141373 101.851170 -71.320933 -108.929124 -3.078428 -5.294102 1.909334 -0.525215 -6.895283 -114.320428 -3.466484 0.949927 19.433356 1.098260 8.650551 15.848017 4.670400 0.000000 -52.414601 14.475789 4.458808 -7.906765 -8.997110 0.146679 -4.580682 -0.143811 -4.656534 47.033261 -2.579019 -10.713182 -21.315637 2.289400 -0.000000 -60.214399
3.939982 16.283695 -2.155294 103.376813 -70.764445 -111.543388 -2.736136 -5.871786 1.667239 1.072371 -4.495986 -106.746190 -3.528770 -0.500819 7.847333 0.894090 8.579614 19.156273 4.974300 0.000000 -51.260700 14.588020 4.497897 -8.067060 -9.261910 0.725745 -2.832583 -0.149306 -4.747119 46.367747 -2.563016 -10.605628 -21.028313 2.196100 -0.000000 -60.103900
3.954466 16.295888 -2.161508 105.911593 -70.059659 -115.608311 -2.435387 -6.478008 0.963112 1.591930 -2.089983 -99.724703 -3.450445 -1.307382 -0.582142 0.593971 7.283337 21.687033 4.458200 -0.000000 -48.748300 14.642198 4.413642 -8.085531 -9.307877 1.655126 -0.580257 -0.136239 -4.835268 45.441324 -2.542565 -10.445904 -20.635971 2.075700 -0.000000 -60.016600
3.960232 16.314833 -2.160578 108.699572 -69.300273 -120.037140 -2.229261 -6.925370 0.073253 -0.015689 -0.057050 -94.493567 -3.639171 -1.601602 -5.592768 0.081721 3.545008 23.209375 2.495000 0.000001 -46.695600 14.667206 4.251454 -7.970603 -9.238835 2.615220 1.715053 -0.105859 -4.892875 44.350330 -2.499876 -10.161389 -20.150329 1.922700 0.000000 -60.033400
3.957581 16.340991 -2.155338 111.105063 -68.544669 -123.908735 -2.097525 -7.180228 -0.700387 -2.637047 1.687126 -91.133116 -3.960558 -1.638947 -7.732189 -0.422687 -1.270214 23.709659 -0.082900 -0.000000 -46.065500 14.706168 4.073658 -7.766546 -9.294643 3.300018 3.669558 -0.071524 -4.902861 43.198033 -2.408343 -9.644199 -19.587969 1.728400 -0.000000 -60.274700
3.946677 16.373919 -2.145736 113.125940 -67.906971 -127.052948 -2.108317 -7.242313 -1.134392 -4.641307 3.122833 -90.339359 -4.201998 -1.354084 -5.331610 -0.579361 -5.274420 21.930295 -2.194800 -0.000000 -46.790399 14.757125 3.902714 -7.532967 -9.454630 3.664207 5.134229 -0.031746 -4.869992 42.039885 -2.270035 -8.913477 -18.979785 1.509800 -0.000000 -60.703900
3.928109 16.412605 -2.130938 114.964575 -67.366099 -129.740106 -2.219122 -7.296333 -1.340164 -5.431238 4.445294 -88.684939 -4.230325 -1.180315 -4.099252 -0.495203 -7.326315 21.033448 -3.292600 0.000000 -48.369401 14.751453 3.716399 -7.248528 -9.605404 3.798984 6.169977 0.003368 -4.789442 40.903917 -2.104897 -8.067233 -18.348522 1.291800 0.000000 -61.211500
3.903241 16.455872 -2.113162 116.713181 -66.917914 -132.068895 -2.459180 -7.346798 -1.295128 -4.558871 5.508928 -86.164673 -4.002568 -1.069915 -3.618234 -0.368822 -6.846395 20.868989 -3.096300 0.000000 -50.617300 14.702443 3.526715 -6.938047 -9.706906 3.798558 6.848936 0.033808 -4.676716 39.799137 -1.931057 -7.188743 -17.709767 1.088800 0.000001 -61.730400
3.873686 16.502085 -2.093478 118.390623 -66.541382 -134.156472 -2.799002 -7.367492 -1.130173 -2.917917 6.264638 -82.797170 -3.649160 -1.011886 -4.034043 -0.285848 -4.838632 21.652232 -2.118700 -0.000001 -52.815000 14.615018 3.320557 -6.588248 -9.727189 3.753242 7.295771 0.057334 -4.540772 38.719409 -1.766179 -6.361496 -17.071414 0.911000 -0.000000 -62.206200
3.841351 16.549407 -2.073636 119.935818 -66.196666 -136.046670 -3.197669 -7.338507 -0.954893 -1.214306 6.752563 -78.773448 -3.272073 -0.978888 -5.202567 -0.151721 -2.144947 23.389186 -0.793100 -0.000001 -54.384300 14.512432 3.097654 -6.199735 -9.699836 3.731959 7.651162 0.070883 -4.393867 37.650506 -1.621409 -5.638339 -16.436645 0.761199 -0.000000 -62.618500
3.807747 16.596013 -2.054561 121.326057 -65.855777 -137.811748 -3.618933 -7.249117 -0.861922 -0.110158 7.142679 -74.552624 -2.967994 -0.930176 -6.587806 0.103044 0.315295 25.775922 0.415300 0.000000 -54.732799 14.407686 2.859606 -5.783080 -9.628644 3.804741 8.064557 0.074649 -4.247336 36.569064 -1.507339 -5.071179 -15.810060 0.640600 -0.000000 -62.940000
3.774386 16.639957 -2.037021 122.564248 -65.518978 -139.468735 -4.046025 -7.082280 -0.798292 0.497067 7.445233 -72.295868 -2.697111 -0.673594 -4.154203 0.378300 2.328053 26.299230 1.425300 0.000000 -53.579901 14.318322 2.632846 -5.394428 -9.508001 4.018991 8.647005 0.075548 -4.116460 35.453005 -1.430647 -4.692533 -15.199677 0.547400 0.000000 -63.144199
3.741755 16.679936 -2.019828 123.721283 -65.171508 -141.167039 -4.452499 -6.898066 -0.863670 0.465845 7.924859 -70.121246 -2.486571 -0.420951 -1.533814 0.592775 3.593689 26.787947 2.040000 -0.000001 -50.659600 14.214044 2.409774 -5.027456 -9.264416 4.417993 9.500569 0.074696 -4.001028 34.287599 -1.400495 -4.551284 -14.615083 0.480900 -0.000000 -63.177999
3.711206 16.714926 -2.004150 124.703681 -64.843596 -142.775966 -4.841160 -6.710505 -0.981004 0.478432 8.338721 -67.550252 -2.276023 -0.219584 0.596763 0.796459 4.799849 27.323751 2.632699 0.000000 -46.784100 14.110567 2.212716 -4.719101 -8.943616 4.929092 10.602441 0.074923 -3.906658 33.083548 -1.410728 -4.616359 -14.064112 0.431800 0.000000 -63.050300
3.683148 16.744690 -1.989698 125.515850 -64.591331 -144.244569 -5.219450 -6.516068 -1.105590 0.626776 8.583099 -64.660583 -2.079139 -0.072386 2.181047 0.973040 5.898314 27.710454 3.170100 -0.000000 -42.676600 14.000137 2.045643 -4.480990 -8.519608 5.489582 11.889349 0.081511 -3.830365 31.854598 -1.458657 -4.872015 -13.556052 0.393900 0.000000 -62.751700
3.657972 16.769550 -1.976860 126.139998 -64.461036 -145.492600 -5.593189 -6.310679 -1.191642 0.977896 8.526411 -61.560190 -1.902976 0.026799 3.247057 1.116097 6.927011 27.812565 3.661901 0.000000 -39.007399 13.882713 1.910190 -4.315779 -8.007416 6.015562 13.261249 0.096592 -3.766806 30.623838 -1.535481 -5.270259 -13.096359 0.360399 -0.000000 -62.298200
3.636104 16.790031 -1.966745 126.528035 -64.474916 -146.417497 -5.962865 -6.091570 -1.196593 1.599236 8.002030 -58.316849 -1.743647 0.084574 3.825836 1.234123 8.055417 27.611709 4.196100 0.000000 -36.490600 13.768991 1.806505 -4.220425 -7.476077 6.416128 14.600989 0.117727 -3.710487 29.422480 -1.625624 -5.729689 -12.687563 0.325700 0.000001 -61.734900
